{"title":"The.Brothers.Grimsby.2016.1080p.BluRay.x265.10bit-z97","uid":15371816,"size":875051268,"categoryP":"video","categoryS":"movies","magnet":"?xt=urn:btih:cb54fd07d0c6b9ea09456b88d2d79d9aba095d29&amp;dn=The.Brothers.Grimsby.2016.1080p.BluRay.x265.10bit-z97&amp;tr=udp%3A%2F%2Ftracker.leechers-paradise.org%3A6969&amp;tr=udp%3A%2F%2Fzer0day.ch%3A1337&amp;tr=udp%3A%2F%2Fopen.demonii.com%3A1337&amp;tr=udp%3A%2F%2Ftracker.coppersurfer.tk%3A6969&amp;tr=udp%3A%2F%2Fexodus.desync.com%3A6969","seeders":0,"leechers":5,"uploader":"48848448","files":2,"time":1469144292,"description":"______ _____  ______\r\n                       |___  /|  _  ||___  /\r\n                          / / | |_| |   / / \r\n                         / /  ____ |  / /  \r\n                       ./ /___.___/ /./ /   \r\n                       _____/____/ _/   \r\n\r\n\r\n                         RELEASE NOTES                         \r\n▄▄▄▄▄▄▄▄▄▄▄▄▄▄▄▄▄▄▄▄▄▄▄▄▄▄▄▄▄▄▄▄▄▄▄▄▄▄▄▄▄▄▄▄▄▄▄▄▄▄▄▄▄▄▄▄▄▄▄▄▄▄▄▄▄\r\n\r\n                   The Brothers Grimsby 2016\r\n               \r\niMDB url                       : www.imdb.com/title/tt3381008/\r\niMDB Rating                    : 6.4/10 from 17,736 votes\r\nRelease                        : 2016 - March 11th\r\nGenre                          : Action, Comedy\r\nSource                         : Blu-ray\r\nSubs                           : ENG/FRA/SPA\r\n\r\n                         PLOT SUMMARY                     \r\n▄▄▄▄▄▄▄▄▄▄▄▄▄▄▄▄▄▄▄▄▄▄▄▄▄▄▄▄▄▄▄▄▄▄▄▄▄▄▄▄▄▄▄▄▄▄▄▄▄▄▄▄▄▄▄▄▄▄▄▄▄▄▄▄▄▄\r\n\r\nA new assignment forces a top spy to team up with his football\r\nhooligan brother. \r\n\r\nDirector : Louis Leterrier\r\nStars    : Sacha Baron Cohen, Mark Strong, Rebel Wilson\r\n\r\n                      RELEASE INFORMATION                 \r\n▄▄▄▄▄▄▄▄▄▄▄▄▄▄▄▄▄▄▄▄▄▄▄▄▄▄▄▄▄▄▄▄▄▄▄▄▄▄▄▄▄▄▄▄▄▄▄▄▄▄▄▄▄▄▄▄▄▄▄▄▄▄▄▄▄▄\r\n\r\nVideo\r\nID                             : 1\r\nFormat                         : HEVC\r\nFormat/Info                    : High Efficiency Video Coding\r\nFormat profile                 : Main   @Main\r\nCodec ID                       : V_MPEGH/ISO/HEVC\r\nDuration                       : 1h 23mn\r\nBit rate                       : 1 150 Kbps\r\nWidth                          : 1 920 pixels\r\nHeight                         : 800 pixels\r\nDisplay aspect ratio           : 2.40:1\r\nFrame rate mode                : Constant\r\nFrame rate                     : 23.976 fps\r\nColor space                    : YUV\r\nChroma subsampling             : 4:2:0\r\nBit depth                      : 10 bits\r\nBits/(Pixel*Frame)             : 0.031\r\nStream size                    : 685 MiB (82%)\r\nWriting library                : x265 1.9+194[64 bit] 10bit\r\nDefault                        : Yes\r\nForced                         : No\r\n\r\nAudio\r\nID                             : 2\r\nFormat                         : AC-3\r\nFormat/Info                    : Audio Coding 3\r\nMode extension                 : CM (complete main)\r\nFormat settings, Endianness    : Big\r\nCodec ID                       : A_AC3\r\nDuration                       : 1h 23mn\r\nBit rate mode                  : Constant\r\nBit rate                       : 224 Kbps\r\nChannel(s)                     : 6 channels\r\nChannel positions              : Front: L C R, Side: L R, LFE\r\nSampling rate                  : 48.0 KHz\r\nCompression mode               : Lossy\r\nStream size                    : 133 MiB (16%)\r\nLanguage                       : English\r\nDefault                        : Yes\r\nForced                         : No","torrent":{"xt":"urn:btih:cb54fd07d0c6b9ea09456b88d2d79d9aba095d29","amp;dn":"The.Brothers.Grimsby.2016.1080p.BluRay.x265.10bit-z97","amp;tr":["udp%3A%2F%2Ftracker.leechers-paradise.org%3A6969","udp%3A%2F%2Fzer0day.ch%3A1337","udp%3A%2F%2Fopen.demonii.com%3A1337","udp%3A%2F%2Ftracker.coppersurfer.tk%3A6969","udp%3A%2F%2Fexodus.desync.com%3A6969"],"infoHash":"cb54fd07d0c6b9ea09456b88d2d79d9aba095d29","infoHashBuffer":{"type":"Buffer","data":[203,84,253,7,208,198,185,234,9,69,107,136,210,215,157,154,186,9,93,41]},"announce":[],"urlList":[]}}